<svg width="1920" height="1080" viewBox="0 0 1920 1080" fill="none" xmlns="http://www.w3.org/2000/svg">
<g clip-path="url(#clip0_114_897)">
<rect width="1920" height="1080" fill="white"/>
<path fill-rule="evenodd" clip-rule="evenodd" d="M1054.83 1414.53C645.206 1441.37 280.927 1283.29 -11.7732 1123C-305.703 962.028 -610.778 760.887 -551.567 534.791C-495.302 319.947 -43.6284 234.886 257.431 95.0436C515.018 -24.6063 719.18 387.181 1054.83 371.955C1409.48 355.866 1737.38 -119.065 1995.17 16.2147C2260.38 155.388 2497.34 333.218 2476.75 534.791C2456.84 729.763 2030.54 1221.01 1794.92 1366.78C1534.47 1527.92 1443.53 1389.06 1054.83 1414.53Z" fill="#6431A5"/>
<path fill-rule="evenodd" clip-rule="evenodd" d="M1138.45 491.995C1401.18 422.524 1556.42 264.539 1751.31 144.359C1932.28 32.7577 2157.09 -79.3184 2243.32 -189.337C2328.94 -298.585 2338.73 -405.872 2219.45 -452.926C2103.51 -498.666 1746.43 -385.029 1630.86 -430.955C1481.61 -490.271 1783.08 -757.423 1511.15 -734.416C1251.24 -712.425 1033.47 -487.888 792.909 -360.057C655.773 -287.184 555.039 -205.693 397.707 -142.741C124.188 -33.2991 -321.55 2.35518 -443.29 134.575C-561.607 263.076 -21.8672 172.304 22.5419 264.718C65.2981 353.693 -339.434 561.668 -211.725 616.455C-93.852 667.023 283.956 493.734 508.193 473.064C755.371 450.279 864.16 564.524 1138.45 491.995Z" fill="#6C36B0"/>
</g>
<defs>
<clipPath id="clip0_114_897">
<rect width="1920" height="1080" fill="white"/>
</clipPath>
</defs>
</svg>
