<svg width="1920" height="1080" viewBox="0 0 1920 1080" fill="none" xmlns="http://www.w3.org/2000/svg">
<g clip-path="url(#clip0_578_587)">
<rect width="1920" height="1080" fill="white"/>
<path fill-rule="evenodd" clip-rule="evenodd" d="M825.798 -144.18C1404.96 -171.316 1920.02 -11.5027 2333.86 150.557C2749.45 313.298 3180.79 516.652 3097.08 745.236C3017.52 962.445 2378.9 1048.44 1953.24 1189.82C1589.04 1310.79 1300.37 894.471 825.798 909.864C324.355 926.129 -139.259 1406.29 -503.747 1269.52C-878.728 1128.81 -1213.76 949.027 -1184.65 745.236C-1156.49 548.118 -553.754 51.47 -220.613 -95.9109C147.643 -258.826 276.222 -118.43 825.798 -144.18Z" fill="#6431A5"/>
<path fill-rule="evenodd" clip-rule="evenodd" d="M1623.43 248.692C2015.3 138.058 2329.28 216.746 2668.36 219.25C2983.24 221.576 3355.65 191.754 3545.75 262.889C3734.52 333.526 3822.92 458.393 3700.42 605.438C3581.34 748.38 3035.19 875.071 2916.74 1017.96C2763.75 1202.5 3345.55 1306.47 2974.41 1481.22C2619.69 1648.24 2177.18 1534.26 1773.1 1556.44C1542.75 1569.08 1353.83 1543.92 1104.11 1583.87C669.971 1653.33 63.0836 1942.3 -189.015 1870.33C-434.024 1800.39 334.407 1509.11 327.219 1362.1C320.299 1220.55 -354.55 1266.61 -226.494 1103.74C-108.3 953.41 506.957 884.727 814.191 742.721C1152.86 586.186 1214.31 364.195 1623.43 248.692Z" fill="#6C36B0"/>
</g>
<defs>
<clipPath id="clip0_578_587">
<rect width="1920" height="1080" fill="white"/>
</clipPath>
</defs>
</svg>
