<svg width="1920" height="1080" viewBox="0 0 1920 1080" fill="none" xmlns="http://www.w3.org/2000/svg">
<g clip-path="url(#clip0_114_894)">
<rect width="1920" height="1080" fill="white"/>
<path fill-rule="evenodd" clip-rule="evenodd" d="M749.835 211.604C1330.62 188.064 1847.11 326.7 2262.12 467.285C2678.86 608.461 3111.41 784.869 3027.46 983.163C2947.69 1171.59 2307.28 1246.19 1880.43 1368.84C1515.21 1473.77 1225.74 1112.62 749.835 1125.98C246.991 1140.09 -217.919 1556.62 -583.426 1437.97C-959.455 1315.91 -1295.42 1159.95 -1266.23 983.163C-1237.99 812.165 -633.573 381.328 -299.5 253.476C69.7843 112.149 198.723 233.941 749.835 211.604Z" fill="#6431A5"/>
<path fill-rule="evenodd" clip-rule="evenodd" d="M601.574 584.242C290.003 492.446 105.903 283.692 -125.214 124.891C-339.833 -22.5728 -606.427 -170.665 -708.689 -316.038C-810.234 -460.393 -821.833 -602.157 -680.389 -664.332C-542.891 -724.771 -119.426 -574.616 17.6205 -635.3C194.625 -713.678 -162.892 -1066.68 159.595 -1036.28C467.821 -1007.22 726.076 -710.529 1011.35 -541.62C1173.98 -445.328 1293.45 -337.65 1480.03 -254.468C1804.39 -109.857 2332.99 -62.7453 2477.37 111.963C2617.68 281.759 1977.6 161.817 1924.93 283.929C1874.23 401.495 2354.2 676.303 2202.75 748.697C2062.97 815.515 1614.92 586.539 1349 559.227C1055.87 529.12 926.857 680.077 601.574 584.242Z" fill="#6C36B0"/>
</g>
<defs>
<clipPath id="clip0_114_894">
<rect width="1920" height="1080" fill="white"/>
</clipPath>
</defs>
</svg>
