<svg width="385" height="308" viewBox="0 0 385 308" fill="none" xmlns="http://www.w3.org/2000/svg">
<path d="M333.144 133.012L155.203 248.568L146.857 253.988C142.955 256.522 138.2 257.387 133.656 256.389C124.515 254.383 118.631 245.341 120.302 236.133C121.17 231.349 123.987 227.062 128.065 224.414L155.21 206.785C159.757 203.833 162.588 198.858 162.803 193.441C163.086 186.364 158.874 179.879 152.294 177.258C147.258 175.252 141.561 175.815 137.015 178.767L128.348 184.395C123.41 187.602 117.222 188.209 111.755 186.022L110.845 185.658C103.706 182.803 99.4048 175.477 100.391 167.851C101.025 162.949 103.779 158.572 107.925 155.88L236.597 72.3198C240.687 69.6638 245.685 68.7968 250.43 69.9201L251.124 70.0844C260.498 72.3035 266.208 81.8051 263.766 91.1239C262.683 95.2563 260.098 98.836 256.515 101.163L250.541 105.042C246.371 107.75 243.624 112.176 243.048 117.115C242.117 125.092 246.994 132.602 254.659 134.996C259.406 136.478 264.566 135.769 268.737 133.06L289.908 119.312L313.661 103.887C319.097 100.356 326.027 100.075 331.732 103.153L331.937 103.264C337.23 106.12 340.661 111.52 340.998 117.525C341.347 123.722 338.35 129.631 333.144 133.012Z" fill="url(#paint0_linear_2_221)"/>
<path d="M91.89 183.089L91.1716 182.226C83.6231 173.151 68.9536 176.589 66.2238 188.073C64.9347 193.496 66.9085 199.174 71.2832 202.628L72.1648 203.324C83.935 212.617 100.206 199.699 93.8238 186.128C93.3107 185.037 92.6609 184.016 91.89 183.089Z" fill="url(#paint1_linear_2_221)"/>
<path d="M379.153 89.6551L379.355 90.938C380.403 97.5953 377.439 104.247 371.786 107.917C366.743 111.192 360.291 111.544 354.894 108.892C349.294 106.14 345.547 100.558 345.184 94.3291L345.155 93.825C344.794 87.6342 347.781 81.7254 352.979 78.3443L353.294 78.1396C360.728 73.3043 370.637 75.0517 375.969 82.1381C377.63 84.3453 378.723 86.9266 379.153 89.6551Z" fill="url(#paint2_linear_2_221)"/>
<path d="M322.731 58.1613L297.912 74.2791C293.68 77.0276 288.446 77.7572 283.624 76.2711C276.167 73.9733 271.227 66.9014 271.634 59.1095L271.672 58.3758C271.973 52.6307 275.006 47.3767 279.831 44.2434L302.726 29.3749C307.204 26.4671 312.745 25.7083 317.84 27.3056L318.537 27.524C326.791 30.1118 331.809 38.4593 330.223 46.9629C329.365 51.5642 326.657 55.612 322.731 58.1613Z" fill="url(#paint3_linear_2_221)"/>
<path d="M84.4521 294.514L101.172 283.656C105.782 280.662 108.7 275.661 109.039 270.175C109.501 262.697 105.108 255.767 98.1478 252.992L97.9211 252.901C92.5882 250.776 86.5551 251.371 81.7403 254.497L65.6724 264.932C61.4296 267.687 58.573 272.131 57.8275 277.134L57.7918 277.374C56.4759 286.205 62.0648 294.597 70.7208 296.787C75.4147 297.975 80.3913 297.151 84.4521 294.514Z" fill="url(#paint4_linear_2_221)"/>
<defs>
<linearGradient id="paint0_linear_2_221" x1="189.179" y1="47.8474" x2="126.617" y2="88.7351" gradientUnits="userSpaceOnUse">
<stop stop-color="#88ADF5"/>
<stop offset="1" stop-color="#C595EB"/>
</linearGradient>
<linearGradient id="paint1_linear_2_221" x1="189.179" y1="47.8474" x2="126.617" y2="88.7351" gradientUnits="userSpaceOnUse">
<stop stop-color="#88ADF5"/>
<stop offset="1" stop-color="#C595EB"/>
</linearGradient>
<linearGradient id="paint2_linear_2_221" x1="189.179" y1="47.8474" x2="126.617" y2="88.7351" gradientUnits="userSpaceOnUse">
<stop stop-color="#88ADF5"/>
<stop offset="1" stop-color="#C595EB"/>
</linearGradient>
<linearGradient id="paint3_linear_2_221" x1="189.179" y1="47.8474" x2="126.617" y2="88.7351" gradientUnits="userSpaceOnUse">
<stop stop-color="#88ADF5"/>
<stop offset="1" stop-color="#C595EB"/>
</linearGradient>
<linearGradient id="paint4_linear_2_221" x1="189.179" y1="47.8474" x2="126.617" y2="88.7351" gradientUnits="userSpaceOnUse">
<stop stop-color="#88ADF5"/>
<stop offset="1" stop-color="#C595EB"/>
</linearGradient>
</defs>
</svg>
