<svg width="483" height="389" viewBox="0 0 483 389" fill="none" xmlns="http://www.w3.org/2000/svg">
<path d="M404.084 172.724L404.068 173.256C403.904 178.536 401.164 183.401 396.733 186.278L251.204 280.786L212.098 306.182L195.338 317.066L177.386 328.724C172.81 331.696 167.044 332.155 162.056 329.947L161.572 329.733C155.728 327.145 152.094 321.213 152.443 314.831C152.711 309.927 155.304 305.447 159.423 302.772L232.189 255.517C236.27 252.867 238.747 248.343 238.78 243.477L238.783 243.054C238.824 237.271 235.27 232.071 229.868 230.006C225.729 228.424 221.083 228.916 217.367 231.329L158.964 269.257C155.329 271.617 150.926 272.485 146.667 271.682L145.782 271.515C136.174 269.704 130.4 259.802 133.553 250.548C134.715 247.139 136.989 244.219 140.01 242.257L178.831 217.046C183.437 214.055 186.221 208.94 186.232 203.448L186.233 203.026C186.246 196.592 182.317 190.807 176.331 188.448C171.63 186.595 166.322 187.129 162.084 189.882L143.291 202.086C139.893 204.293 135.733 204.994 131.8 204.023C124.976 202.339 120.31 196.048 120.678 189.029L120.739 187.858C121.009 182.72 123.722 178.022 128.036 175.22L179.387 141.873L277.313 78.2788C281.56 75.5206 286.86 74.9283 291.611 76.6809L292.711 77.0864C299.453 79.5732 303.402 86.577 302.04 93.633C301.285 97.5483 298.969 100.988 295.624 103.159L276.548 115.547C272.751 118.013 270.205 121.999 269.562 126.481C268.485 133.998 272.946 141.207 280.154 143.598L280.557 143.732C285.229 145.282 290.352 144.624 294.48 141.943L375.624 89.2471C378.992 87.0599 383.061 86.2216 387.019 86.8991C395.609 88.3694 401.435 96.4546 400.112 105.069L399.969 105.997C399.236 110.767 396.504 114.996 392.457 117.624L352.041 143.871C348.863 145.934 346.663 149.202 345.945 152.922C344.576 160.018 348.857 166.984 355.806 168.969L356.212 169.084C360.215 170.227 364.517 169.582 368.009 167.314L380.303 159.331C384.291 156.741 389.251 156.138 393.743 157.698C400.105 159.907 404.293 165.993 404.084 172.724Z" fill="url(#paint0_linear_495_664)"/>
<path d="M349.34 68.2761L332.161 79.432C328.536 81.7867 324.051 82.4086 319.921 81.1294C313.836 79.2447 309.683 73.6243 309.667 67.2545L309.664 66.0823C309.65 60.5969 312.421 55.4793 317.021 52.4917L331.002 43.4129C335.316 40.611 340.711 40.0437 345.514 41.8871L346.61 42.3075C353.171 44.8257 357.02 51.6478 355.783 58.5661C355.07 62.5544 352.738 66.0695 349.34 68.2761Z" fill="url(#paint1_linear_495_664)"/>
<path d="M423.356 160.009L422.877 159.789C417.232 157.188 413.709 151.442 413.952 145.23C414.147 140.243 416.752 135.661 420.938 132.942L447.447 115.727C450.864 113.508 455.019 112.724 459.009 113.546C467.131 115.22 472.494 122.992 471.177 131.179L471.094 131.696C470.374 136.17 467.795 140.13 463.995 142.598L438.915 158.885C434.265 161.905 428.391 162.329 423.356 160.009Z" fill="url(#paint2_linear_495_664)"/>
<path d="M111.969 211.969L111.855 211.122C111.225 206.456 108.388 202.338 104.272 200.053C99.5013 197.403 93.6085 197.578 89.0318 200.55C84.7053 203.36 82.1615 208.226 82.3239 213.382L82.3865 215.368C82.5761 221.391 86.4672 226.67 92.1638 228.633C96.3892 230.089 101.05 229.518 104.798 227.084L105.129 226.869C110.098 223.642 112.761 217.84 111.969 211.969Z" fill="url(#paint3_linear_495_664)"/>
<path d="M121.659 285.003L121.703 284.045C122.044 276.705 117.294 270.095 110.228 268.077C105.825 266.82 101.093 267.53 97.2521 270.024L56.914 296.22C54.1846 297.993 52.0549 300.549 50.8047 303.554C46.6913 313.44 53.1718 324.517 63.8053 325.776L64.6544 325.876C68.5475 326.337 72.479 325.42 75.7668 323.285L113.912 298.514C118.52 295.521 121.404 290.492 121.659 285.003Z" fill="url(#paint4_linear_495_664)"/>
<defs>
<linearGradient id="paint0_linear_495_664" x1="340.781" y1="315.139" x2="398.959" y2="243.586" gradientUnits="userSpaceOnUse">
<stop stop-color="#C595EB"/>
<stop offset="1" stop-color="#88ADF5"/>
</linearGradient>
<linearGradient id="paint1_linear_495_664" x1="340.781" y1="315.139" x2="398.959" y2="243.586" gradientUnits="userSpaceOnUse">
<stop stop-color="#C595EB"/>
<stop offset="1" stop-color="#88ADF5"/>
</linearGradient>
<linearGradient id="paint2_linear_495_664" x1="340.781" y1="315.139" x2="398.959" y2="243.586" gradientUnits="userSpaceOnUse">
<stop stop-color="#C595EB"/>
<stop offset="1" stop-color="#88ADF5"/>
</linearGradient>
<linearGradient id="paint3_linear_495_664" x1="340.781" y1="315.139" x2="398.959" y2="243.586" gradientUnits="userSpaceOnUse">
<stop stop-color="#C595EB"/>
<stop offset="1" stop-color="#88ADF5"/>
</linearGradient>
<linearGradient id="paint4_linear_495_664" x1="340.781" y1="315.139" x2="398.959" y2="243.586" gradientUnits="userSpaceOnUse">
<stop stop-color="#C595EB"/>
<stop offset="1" stop-color="#88ADF5"/>
</linearGradient>
</defs>
</svg>
