<svg width="483" height="389" viewBox="0 0 483 389" fill="none" xmlns="http://www.w3.org/2000/svg">
<path d="M327.359 54.995L326.869 54.7956C322.004 52.8187 316.48 53.3449 312.077 56.2048L166.503 150.741L127.397 176.137L110.637 187.021L92.6385 198.71C88.0905 201.663 85.3376 206.71 85.3166 212.133L85.3145 212.66C85.2897 219.047 89.2307 224.78 95.2034 227.044C99.7679 228.774 104.884 228.226 108.978 225.567L181.826 178.259C185.882 175.625 190.99 175.2 195.426 177.129L195.812 177.297C201.113 179.601 204.418 184.962 204.096 190.732C203.851 195.13 201.522 199.147 197.828 201.547L139.349 239.523C135.739 241.867 133.169 245.509 132.169 249.696L131.96 250.567C129.692 260.065 136.384 269.362 146.111 270.225C149.674 270.541 153.24 269.655 156.241 267.706L195.14 242.444C199.719 239.471 205.488 239.006 210.484 241.207L210.869 241.377C216.753 243.969 220.438 249.911 220.147 256.334C219.919 261.353 217.285 265.953 213.072 268.689L194.203 280.943C190.826 283.136 188.505 286.626 187.788 290.588C186.539 297.499 190.387 304.32 196.948 306.824L198.04 307.24C202.817 309.063 208.177 308.495 212.464 305.71L263.859 272.334L361.829 208.711C366.05 205.97 368.734 201.402 369.073 196.38L369.151 195.216C369.635 188.052 364.844 181.597 357.846 179.986C353.985 179.097 349.928 179.814 346.605 181.972L327.456 194.407C323.682 196.858 319.036 197.563 314.706 196.343C307.403 194.286 302.632 187.281 303.393 179.732L303.436 179.31C303.927 174.444 306.599 170.062 310.701 167.398L391.923 114.652C395.269 112.479 397.677 109.129 398.669 105.265C400.834 96.8315 395.82 88.2239 387.416 85.9482L386.513 85.7038C381.886 84.4508 376.945 85.2268 372.924 87.8376L332.432 114.133C329.275 116.184 325.421 116.864 321.753 116.02C314.717 114.4 310.096 107.658 311.123 100.511L311.183 100.096C311.771 96.0011 314.099 92.3598 317.569 90.1067L329.939 82.0733C333.902 79.4994 336.458 75.2422 336.867 70.5339C337.449 63.8295 333.594 57.5286 327.359 54.995Z" fill="url(#paint0_linear_495_671)"/>
<path d="M400.32 147.088L383.072 158.29C379.468 160.63 377.087 164.448 376.57 168.714C375.805 175.034 379.249 181.114 385.063 183.708L386.13 184.183C391.109 186.404 396.875 185.952 401.448 182.983L415.519 173.845C419.806 171.06 422.506 166.395 422.784 161.29L422.847 160.123C423.228 153.111 418.562 146.821 411.741 145.152C407.83 144.195 403.697 144.895 400.32 147.088Z" fill="url(#paint1_linear_495_671)"/>
<path d="M346.842 42.5431L346.847 43.0679C346.916 49.2799 350.732 54.8346 356.506 57.1269C361.118 58.9578 366.331 58.4399 370.493 55.7375L397.079 38.4723C400.474 36.2675 402.866 32.8166 403.741 28.8638C405.53 20.7757 400.613 12.7182 392.602 10.6097L392.098 10.477C387.744 9.33108 383.109 10.0758 379.333 12.5278L354.168 28.8705C349.545 31.8724 346.781 37.0316 346.842 42.5431Z" fill="url(#paint2_linear_495_671)"/>
<path d="M172.48 305.504L173.154 305.919C177.163 308.385 179.768 312.627 180.175 317.317C180.646 322.755 178.082 328.038 173.504 331.011C169.177 333.821 163.697 334.171 159.048 331.933L157.311 331.097C151.885 328.485 148.645 322.783 149.18 316.785C149.575 312.36 151.981 308.362 155.707 305.942L156.073 305.705C161.044 302.476 167.43 302.398 172.48 305.504Z" fill="url(#paint3_linear_495_671)"/>
<path d="M109.783 267.137L110.674 267.483C117.518 270.142 121.624 277.17 120.58 284.437C119.932 288.942 117.371 292.948 113.554 295.427L73.1477 321.667C70.4373 323.428 67.2592 324.33 64.0282 324.256C53.339 324.013 45.8621 313.596 49.0526 303.391L49.3063 302.58C50.468 298.864 52.8904 295.67 56.1554 293.55L94.3834 268.724C98.9631 265.75 104.693 265.16 109.783 267.137Z" fill="url(#paint4_linear_495_671)"/>
<defs>
<linearGradient id="paint0_linear_495_671" x1="171.721" y1="55.1949" x2="260.746" y2="31.2617" gradientUnits="userSpaceOnUse">
<stop stop-color="#C595EB"/>
<stop offset="1" stop-color="#88ADF5"/>
</linearGradient>
<linearGradient id="paint1_linear_495_671" x1="171.721" y1="55.1949" x2="260.746" y2="31.2617" gradientUnits="userSpaceOnUse">
<stop stop-color="#C595EB"/>
<stop offset="1" stop-color="#88ADF5"/>
</linearGradient>
<linearGradient id="paint2_linear_495_671" x1="171.721" y1="55.1949" x2="260.746" y2="31.2617" gradientUnits="userSpaceOnUse">
<stop stop-color="#C595EB"/>
<stop offset="1" stop-color="#88ADF5"/>
</linearGradient>
<linearGradient id="paint3_linear_495_671" x1="171.721" y1="55.1949" x2="260.746" y2="31.2617" gradientUnits="userSpaceOnUse">
<stop stop-color="#C595EB"/>
<stop offset="1" stop-color="#88ADF5"/>
</linearGradient>
<linearGradient id="paint4_linear_495_671" x1="171.721" y1="55.1949" x2="260.746" y2="31.2617" gradientUnits="userSpaceOnUse">
<stop stop-color="#C595EB"/>
<stop offset="1" stop-color="#88ADF5"/>
</linearGradient>
</defs>
</svg>
