<svg width="377" height="295" viewBox="0 0 377 295" fill="none" xmlns="http://www.w3.org/2000/svg">
<path d="M105.698 262.044L285.622 145.2L295.337 138.891C298.402 136.9 300.639 133.864 301.633 130.348C304.075 121.711 298.329 112.842 289.478 111.354C285.711 110.721 281.792 111.516 278.588 113.596L248.46 133.162C244.823 135.523 240.319 136.129 236.188 134.811C229.627 132.718 225.452 126.289 226.208 119.444C226.685 115.134 229.07 111.265 232.706 108.903L244.58 101.193C248.512 98.6393 251.088 94.4541 251.596 89.7937L251.687 88.9561C252.498 81.5171 247.579 74.6601 240.273 73.044C236.433 72.1947 232.414 72.9225 229.116 75.0643L97.3919 160.607C94.188 162.687 91.8716 165.884 90.8922 169.577L90.7404 170.149C88.374 179.071 94.6034 187.976 103.796 188.813C107.125 189.116 110.46 188.291 113.265 186.47L121.92 180.849C125.225 178.703 129.263 177.998 133.099 178.898C140.646 180.667 145.456 188.074 144.003 195.688C143.265 199.559 140.979 202.961 137.674 205.107L115.043 219.804L89.4977 236.393C85.089 239.256 82.4551 244.179 82.5196 249.435L82.5222 249.644C82.5947 255.551 86.1271 260.866 91.5455 263.221C96.1618 265.227 101.476 264.785 105.698 262.044Z" fill="url(#paint0_linear_495_582)"/>
<path d="M68.9975 285.877L70.2003 285.096C74.3367 282.41 76.8895 277.863 77.0293 272.933C77.2028 266.815 73.6449 261.205 68.0372 258.754L67.845 258.67C63.1249 256.606 57.684 257.053 53.3637 259.859L52.9348 260.137C46.9962 263.994 44.4778 271.495 46.779 278.191C47.5921 280.558 48.9987 282.712 50.8487 284.397C55.8583 288.959 63.315 289.567 68.9975 285.877Z" fill="url(#paint1_linear_495_582)"/>
<path d="M59.3925 221.455L72.7982 212.749C77.1016 209.954 79.6231 205.107 79.4408 199.979C79.2602 194.898 76.4509 190.277 72.0237 187.777L71.4954 187.479C66.4048 184.605 60.1385 184.799 55.2357 187.983L43.8129 195.401C39.3157 198.322 36.6316 203.346 36.7038 208.707L36.7123 209.337C36.793 215.339 40.5179 220.687 46.1188 222.843C50.5102 224.534 55.446 224.018 59.3925 221.455Z" fill="url(#paint2_linear_495_582)"/>
<path d="M357.895 98.2649L338.207 111.051C334.524 113.442 329.981 114.105 325.769 112.865C318.778 110.808 314.268 104.034 315.066 96.7896L315.089 96.5794C315.592 92.0204 318.114 87.9276 321.961 85.4296L341.136 72.9773C344.481 70.8049 348.601 70.0396 352.511 70.8251C360.935 72.517 366.385 80.9284 364.31 89.2664C363.389 92.9702 361.096 96.1862 357.895 98.2649Z" fill="url(#paint3_linear_495_582)"/>
<path d="M272.227 50.2475C278.289 50.9365 283.223 55.4548 284.45 61.4312C287.34 75.5037 269.799 84.4199 260.182 73.7475C259.256 72.7208 258.485 71.5598 257.897 70.3093C253.197 60.3196 261.258 49.0007 272.227 50.2475Z" fill="url(#paint4_linear_495_582)"/>
<defs>
<linearGradient id="paint0_linear_495_582" x1="99.3008" y1="101.249" x2="145.775" y2="64.1095" gradientUnits="userSpaceOnUse">
<stop stop-color="#C595EB"/>
<stop offset="1" stop-color="#88ADF5"/>
</linearGradient>
<linearGradient id="paint1_linear_495_582" x1="99.3008" y1="101.249" x2="145.775" y2="64.1095" gradientUnits="userSpaceOnUse">
<stop stop-color="#C595EB"/>
<stop offset="1" stop-color="#88ADF5"/>
</linearGradient>
<linearGradient id="paint2_linear_495_582" x1="99.3008" y1="101.249" x2="145.775" y2="64.1095" gradientUnits="userSpaceOnUse">
<stop stop-color="#C595EB"/>
<stop offset="1" stop-color="#88ADF5"/>
</linearGradient>
<linearGradient id="paint3_linear_495_582" x1="99.3008" y1="101.249" x2="145.775" y2="64.1095" gradientUnits="userSpaceOnUse">
<stop stop-color="#C595EB"/>
<stop offset="1" stop-color="#88ADF5"/>
</linearGradient>
<linearGradient id="paint4_linear_495_582" x1="99.3008" y1="101.249" x2="145.775" y2="64.1095" gradientUnits="userSpaceOnUse">
<stop stop-color="#C595EB"/>
<stop offset="1" stop-color="#88ADF5"/>
</linearGradient>
</defs>
</svg>
