<svg width="377" height="295" viewBox="0 0 377 295" fill="none" xmlns="http://www.w3.org/2000/svg">
<path d="M49.6841 175.607L229.525 58.8172L239.173 52.5513C242.28 50.534 246.016 49.7207 249.68 50.2644C258.581 51.5853 264.354 60.4541 262.142 69.1767C261.19 72.9293 258.845 76.2368 255.598 78.3453L225.614 97.8171C221.931 100.208 219.523 104.132 219.058 108.498C218.327 115.358 222.504 121.792 229.069 123.914C233.247 125.265 237.811 124.661 241.493 122.269L253.209 114.661C257.191 112.075 262.128 111.425 266.644 112.892L267.452 113.155C274.581 115.472 278.848 122.758 277.379 130.109C276.599 134.015 274.275 137.441 270.935 139.61L139.35 225.062C136.102 227.171 132.183 227.991 128.363 227.36L127.772 227.263C118.641 225.756 113.032 216.43 115.98 207.657C117.06 204.444 119.195 201.691 122.037 199.845L130.562 194.309C133.91 192.135 136.22 188.682 136.953 184.758C138.378 177.121 133.564 169.707 126.007 167.903C122.124 166.976 118.031 167.682 114.683 169.857L92.1219 184.508L66.664 201.04C62.2032 203.937 56.5658 204.336 51.7417 202.096L51.5513 202.007C46.1865 199.516 42.7665 194.126 42.7977 188.211C42.8246 183.118 45.4129 178.381 49.6841 175.607Z" fill="url(#paint0_linear_495_585)"/>
<path d="M12.9966 199.432L14.0207 198.767C18.2066 196.049 23.4638 195.57 28.072 197.487C33.7298 199.841 37.4089 205.375 37.3898 211.503L37.3891 211.714C37.3728 216.927 34.7281 221.78 30.3562 224.619L30.1145 224.776C24.119 228.669 16.1659 227.905 10.9437 223.023C9.11541 221.313 7.71948 219.152 6.92804 216.778C4.76494 210.289 7.25979 203.158 12.9966 199.432Z" fill="url(#paint1_linear_495_585)"/>
<path d="M68.1826 234.818L81.4273 226.217C85.7797 223.391 91.2986 223.065 95.9535 225.359C100.517 227.608 103.596 232.055 104.096 237.119L104.156 237.726C104.736 243.609 101.987 249.326 97.0285 252.546L85.7908 259.844C81.2398 262.799 75.4877 263.203 70.5688 260.911L69.9937 260.643C64.547 258.106 61.1751 252.527 61.4608 246.526C61.6873 241.769 64.1889 237.412 68.1826 234.818Z" fill="url(#paint2_linear_495_585)"/>
<path d="M301.729 11.9272L282.186 24.6187C278.457 27.0402 275.979 30.9765 275.408 35.3858C274.471 42.6262 278.828 49.5061 285.774 51.7541L285.977 51.8198C290.396 53.25 295.224 52.6115 299.12 50.0818L318.142 37.7283C321.533 35.5267 323.933 32.022 324.802 28.0744C326.654 19.6629 321.18 11.2524 312.704 9.71942C308.898 9.03098 304.973 9.82061 301.729 11.9272Z" fill="url(#paint3_linear_495_585)"/>
<path d="M311.226 110.168C313.031 104.369 310.91 98.0552 305.982 94.5062C294.293 86.0888 278.916 98.4898 284.786 111.644C285.345 112.896 286.089 114.067 286.985 115.107C294.218 123.505 307.931 120.75 311.226 110.168Z" fill="url(#paint4_linear_495_585)"/>
<defs>
<linearGradient id="paint0_linear_495_585" x1="194.494" y1="247.834" x2="247.308" y2="220.44" gradientUnits="userSpaceOnUse">
<stop stop-color="#C595EB"/>
<stop offset="1" stop-color="#88ADF5"/>
</linearGradient>
<linearGradient id="paint1_linear_495_585" x1="194.494" y1="247.834" x2="247.308" y2="220.44" gradientUnits="userSpaceOnUse">
<stop stop-color="#C595EB"/>
<stop offset="1" stop-color="#88ADF5"/>
</linearGradient>
<linearGradient id="paint2_linear_495_585" x1="194.494" y1="247.834" x2="247.308" y2="220.44" gradientUnits="userSpaceOnUse">
<stop stop-color="#C595EB"/>
<stop offset="1" stop-color="#88ADF5"/>
</linearGradient>
<linearGradient id="paint3_linear_495_585" x1="194.494" y1="247.834" x2="247.308" y2="220.44" gradientUnits="userSpaceOnUse">
<stop stop-color="#C595EB"/>
<stop offset="1" stop-color="#88ADF5"/>
</linearGradient>
<linearGradient id="paint4_linear_495_585" x1="194.494" y1="247.834" x2="247.308" y2="220.44" gradientUnits="userSpaceOnUse">
<stop stop-color="#C595EB"/>
<stop offset="1" stop-color="#88ADF5"/>
</linearGradient>
</defs>
</svg>
