<svg width="482" height="388" viewBox="0 0 482 388" fill="none" xmlns="http://www.w3.org/2000/svg">
<path d="M154.541 332.972L155.029 333.168C159.851 335.109 165.316 334.579 169.675 331.748L315.412 237.105L354.541 211.695L371.311 200.804L389.4 189.057C393.903 186.133 396.636 181.143 396.674 175.774L396.677 175.25C396.723 168.866 392.78 163.132 386.803 160.889C382.279 159.191 377.217 159.742 373.164 162.374L300.129 209.803C296.113 212.411 291.059 212.84 286.662 210.945L286.277 210.779C280.972 208.493 277.666 203.131 278.007 197.365C278.264 193.012 280.575 189.04 284.233 186.665L342.88 148.579C346.449 146.261 348.996 142.666 349.999 138.531L350.208 137.668C352.507 128.194 345.818 118.901 336.105 118.073C332.581 117.772 329.058 118.655 326.092 120.581L287.032 145.947C282.499 148.891 276.79 149.36 271.837 147.197L271.454 147.03C265.565 144.458 261.878 138.514 262.191 132.095C262.433 127.127 265.048 122.579 269.219 119.87L288.234 107.522C291.575 105.352 293.877 101.903 294.599 97.9856C295.873 91.0843 292.024 84.2611 285.459 81.781L284.373 81.3709C279.641 79.583 274.339 80.1544 270.096 82.9098L218.593 116.356L120.488 180.067C116.312 182.779 113.65 187.293 113.297 192.26L113.215 193.416C112.708 200.573 117.501 207.029 124.498 208.614C128.322 209.48 132.333 208.764 135.621 206.629L154.91 194.103C158.644 191.678 163.238 190.973 167.527 192.165C174.83 194.194 179.601 201.2 178.815 208.739L178.771 209.157C178.269 213.971 175.618 218.3 171.559 220.936L90.1524 273.802C86.8433 275.951 84.4571 279.259 83.4624 283.078C81.27 291.493 86.2837 300.099 94.6854 302.343L95.5816 302.582C100.162 303.805 105.047 303.029 109.023 300.447L149.672 274.049C152.795 272.021 156.605 271.341 160.237 272.164C167.27 273.757 171.891 280.498 170.84 287.633L170.779 288.045C170.183 292.094 167.875 295.69 164.443 297.919L151.931 306.045C148.008 308.593 145.471 312.801 145.051 317.46C144.446 324.158 148.302 330.46 154.541 332.972Z" fill="url(#paint0_linear_495_570)"/>
<path d="M81.8734 241.533L99.2567 230.245C102.824 227.928 105.187 224.155 105.712 219.934C106.499 213.619 103.054 207.536 97.2343 204.963L96.1728 204.493C91.2366 202.311 85.5324 202.767 81.0059 205.707L66.7664 214.954C62.5234 217.709 59.8453 222.32 59.5536 227.37L59.4867 228.529C59.0822 235.535 63.7501 241.826 70.5725 243.47C74.4456 244.404 78.5321 243.703 81.8734 241.533Z" fill="url(#paint1_linear_495_570)"/>
<path d="M134.997 345.464L134.993 344.942C134.944 338.732 131.126 333.176 125.347 330.904C120.775 329.106 115.616 329.628 111.496 332.303L84.759 349.667C81.401 351.847 79.0292 355.255 78.1507 359.162C76.3355 367.233 81.2512 375.289 89.2593 377.367L89.76 377.497C94.0703 378.615 98.6521 377.871 102.387 375.446L127.719 358.995C132.296 356.023 135.04 350.921 134.997 345.464Z" fill="url(#paint2_linear_495_570)"/>
<path d="M309.89 83.0053L309.308 82.6495C305.292 80.1945 302.687 75.9722 302.295 71.282C301.841 65.8608 304.423 60.6177 308.986 57.6548C313.317 54.8422 318.816 54.473 323.476 56.6981L325.121 57.4834C330.553 60.0774 333.794 65.7827 333.239 71.7773C332.833 76.1569 330.444 80.1096 326.756 82.5051L326.33 82.7815C321.35 86.0154 314.956 86.1025 309.89 83.0053Z" fill="url(#paint3_linear_495_570)"/>
<path d="M372.476 121.056L371.589 120.715C364.742 118.081 360.635 111.051 361.704 103.793C362.361 99.3369 364.901 95.3782 368.678 92.9252L409.229 66.591C411.908 64.8516 415.046 63.955 418.239 64.0171C428.908 64.2247 436.377 74.6332 433.157 84.8061L432.903 85.609C431.743 89.2772 429.344 92.4284 426.117 94.5239L387.72 119.459C383.188 122.403 377.52 122.996 372.476 121.056Z" fill="url(#paint4_linear_495_570)"/>
<defs>
<linearGradient id="paint0_linear_495_570" x1="120.135" y1="88.7695" x2="202.813" y2="47.8245" gradientUnits="userSpaceOnUse">
<stop stop-color="#C595EB"/>
<stop offset="1" stop-color="#88ADF5"/>
</linearGradient>
<linearGradient id="paint1_linear_495_570" x1="120.135" y1="88.7695" x2="202.813" y2="47.8245" gradientUnits="userSpaceOnUse">
<stop stop-color="#C595EB"/>
<stop offset="1" stop-color="#88ADF5"/>
</linearGradient>
<linearGradient id="paint2_linear_495_570" x1="120.135" y1="88.7695" x2="202.813" y2="47.8245" gradientUnits="userSpaceOnUse">
<stop stop-color="#C595EB"/>
<stop offset="1" stop-color="#88ADF5"/>
</linearGradient>
<linearGradient id="paint3_linear_495_570" x1="120.135" y1="88.7695" x2="202.813" y2="47.8245" gradientUnits="userSpaceOnUse">
<stop stop-color="#C595EB"/>
<stop offset="1" stop-color="#88ADF5"/>
</linearGradient>
<linearGradient id="paint4_linear_495_570" x1="120.135" y1="88.7695" x2="202.813" y2="47.8245" gradientUnits="userSpaceOnUse">
<stop stop-color="#C595EB"/>
<stop offset="1" stop-color="#88ADF5"/>
</linearGradient>
</defs>
</svg>
