<svg width="572" height="464" viewBox="0 0 572 464" fill="none" xmlns="http://www.w3.org/2000/svg">
<path d="M510.827 197.623L324.086 318.894L193.029 404.004C189.721 406.152 185.665 406.818 181.845 405.84L181.475 405.746C174.319 403.915 169.898 396.747 171.473 389.531C172.243 386.003 174.374 382.92 177.403 380.953L236.403 342.638C238.127 341.519 239.578 340.028 240.651 338.274C246.279 329.078 239.642 317.272 228.86 317.302L227.901 317.304C225.146 317.312 222.452 318.114 220.142 319.614L174.498 349.256C172.381 350.63 169.878 351.369 167.354 351.382C157.667 351.435 151.109 341.28 155.388 332.589C156.426 330.481 158.014 328.693 159.984 327.413L221.246 287.629L268.478 256.956C271.624 254.913 273.882 251.724 274.781 248.081C276.829 239.78 271.397 231.425 262.965 230.012C259.34 229.404 255.62 230.178 252.538 232.179L102.214 329.801C99.678 331.448 96.625 332.103 93.6372 331.642C86.3805 330.522 81.714 323.337 83.6427 316.252C84.4369 313.335 86.2773 310.812 88.8127 309.166L123.455 286.669C126.057 284.979 127.862 282.305 128.455 279.259C129.621 273.267 125.815 267.4 119.887 265.944C116.792 265.185 113.492 265.731 110.82 267.467L93.0428 279.011C90.9458 280.373 88.4913 281.108 85.9909 281.13C76.355 281.214 69.8689 271.208 73.9626 262.485C74.9997 260.275 76.6345 258.399 78.6821 257.069L124.421 227.366L301.179 112.578C304.067 110.702 307.58 110.043 310.952 110.744C318 112.209 322.521 119.163 321.08 126.215C320.374 129.67 318.305 132.724 315.348 134.644L214.613 200.063C212.447 201.469 210.81 203.58 209.976 206.025C207.557 213.113 212.455 220.644 219.924 221.216C222.43 221.408 224.931 220.77 227.039 219.401L354.837 136.408C357.418 134.731 360.534 134.084 363.57 134.592C370.687 135.785 375.254 142.817 373.448 149.803C372.678 152.784 370.819 155.367 368.238 157.043L318.469 189.363C315.522 191.277 313.359 194.183 312.371 197.555C309.862 206.124 315.582 214.942 324.417 216.231C327.967 216.748 331.607 215.96 334.616 214.006L415.981 161.167C418.568 159.486 421.669 158.782 424.728 159.18C432.47 160.186 437.581 167.748 435.628 175.307L435.559 175.574C434.731 178.779 432.731 181.557 429.955 183.36L396.203 205.279C393.25 207.197 391.097 210.126 390.15 213.517L389.845 214.609C387.427 223.269 393.926 231.851 402.917 231.869C405.556 231.874 408.139 231.112 410.352 229.674L496.124 173.973C499.153 172.006 502.836 171.313 506.373 172.045C513.606 173.54 518.356 180.495 517.118 187.777L517.054 188.153C516.392 192.041 514.135 195.475 510.827 197.623Z" fill="url(#paint0_linear_2_219)"/>
<path d="M389.231 55.3959L338.853 88.1122C334.688 90.8168 332.424 95.6551 333.017 100.586C333.493 104.544 335.789 108.086 339.191 110.164C343.528 112.812 349.043 112.762 353.305 109.995L403.403 77.4607C406.309 75.5738 408.359 72.5904 409.098 69.2056C410.662 62.0393 406.036 54.9241 398.835 53.5272C395.513 52.8827 392.07 53.5526 389.231 55.3959Z" fill="url(#paint1_linear_2_219)"/>
<path d="M17.2808 296.943L40.6116 281.792C44.3002 279.397 48.9479 279.023 52.9722 280.797C57.666 282.867 60.7102 287.548 60.7495 292.678C60.7841 297.178 58.5209 301.43 54.7462 303.881L31.6985 318.849C28.2079 321.115 23.8148 321.586 19.9116 320.141C14.4491 318.119 10.9342 312.7 11.3776 306.892C11.6872 302.837 13.87 299.158 17.2808 296.943Z" fill="url(#paint2_linear_2_219)"/>
<path d="M108.311 360.347L108.768 360.05C110.67 358.815 112.856 358.085 115.118 357.929C125.475 357.216 132.603 368.162 127.871 377.402C126.803 379.488 125.201 381.269 123.236 382.546L122.976 382.714C121.035 383.975 118.788 384.712 116.478 384.852C106.04 385.487 98.8722 374.42 103.83 365.212C104.892 363.24 106.433 361.567 108.311 360.347Z" fill="url(#paint3_linear_2_219)"/>
<path d="M379.891 128.067L379.926 128.35C380.387 132.111 382.555 135.45 385.803 137.4L386.048 137.547C389.93 139.878 394.801 139.793 398.598 137.327C401.935 135.16 403.961 131.462 403.992 127.482L403.994 127.237C404.031 122.31 401.126 117.836 396.61 115.867L396.384 115.768C392.737 114.177 388.535 114.524 385.197 116.692C381.4 119.158 379.341 123.573 379.891 128.067Z" fill="url(#paint4_linear_2_219)"/>
<path d="M539.912 145.537L534.194 149.25C530.225 151.828 527.883 156.284 528.01 161.014C528.141 165.92 530.907 170.374 535.246 172.667L535.577 172.843C540.141 175.255 545.653 175.007 549.982 172.196L554.668 169.153C557.621 167.235 559.749 164.279 560.63 160.869L560.721 160.515C562.803 152.458 557.31 144.412 549.049 143.417C545.849 143.031 542.615 143.782 539.912 145.537Z" fill="url(#paint5_linear_2_219)"/>
<path d="M485.476 115.948L456.839 134.118C452.449 136.903 450.112 142.013 450.877 147.155C451.429 150.87 453.544 154.172 456.688 156.227L456.821 156.314C461.298 159.241 467.081 159.25 471.566 156.337L499.305 138.323C503.242 135.767 505.545 131.329 505.369 126.638L505.36 126.4C505.176 121.483 502.222 117.095 497.735 115.075C493.762 113.285 489.156 113.613 485.476 115.948Z" fill="url(#paint6_linear_2_219)"/>
<defs>
<linearGradient id="paint0_linear_2_219" x1="276.779" y1="71.0301" x2="185.83" y2="130.445" gradientUnits="userSpaceOnUse">
<stop stop-color="#88ADF5"/>
<stop offset="1" stop-color="#C595EB"/>
</linearGradient>
<linearGradient id="paint1_linear_2_219" x1="276.779" y1="71.0301" x2="185.83" y2="130.445" gradientUnits="userSpaceOnUse">
<stop stop-color="#88ADF5"/>
<stop offset="1" stop-color="#C595EB"/>
</linearGradient>
<linearGradient id="paint2_linear_2_219" x1="276.779" y1="71.0301" x2="185.83" y2="130.445" gradientUnits="userSpaceOnUse">
<stop stop-color="#88ADF5"/>
<stop offset="1" stop-color="#C595EB"/>
</linearGradient>
<linearGradient id="paint3_linear_2_219" x1="276.779" y1="71.0301" x2="185.83" y2="130.445" gradientUnits="userSpaceOnUse">
<stop stop-color="#88ADF5"/>
<stop offset="1" stop-color="#C595EB"/>
</linearGradient>
<linearGradient id="paint4_linear_2_219" x1="276.779" y1="71.0301" x2="185.83" y2="130.445" gradientUnits="userSpaceOnUse">
<stop stop-color="#88ADF5"/>
<stop offset="1" stop-color="#C595EB"/>
</linearGradient>
<linearGradient id="paint5_linear_2_219" x1="276.779" y1="71.0301" x2="185.83" y2="130.445" gradientUnits="userSpaceOnUse">
<stop stop-color="#88ADF5"/>
<stop offset="1" stop-color="#C595EB"/>
</linearGradient>
<linearGradient id="paint6_linear_2_219" x1="276.779" y1="71.0301" x2="185.83" y2="130.445" gradientUnits="userSpaceOnUse">
<stop stop-color="#88ADF5"/>
<stop offset="1" stop-color="#C595EB"/>
</linearGradient>
</defs>
</svg>
