<svg width="572" height="464" viewBox="0 0 572 464" fill="none" xmlns="http://www.w3.org/2000/svg">
<path d="M408.536 40.1107L221.795 161.382L90.7376 246.491C87.43 248.639 85.1721 252.073 84.511 255.961L84.4469 256.338C83.2087 263.62 87.9585 270.574 95.1915 272.07C98.7284 272.802 102.411 272.109 105.44 270.141L164.44 231.827C166.164 230.707 168.116 229.987 170.155 229.72C180.845 228.32 188.93 239.185 184.518 249.022L184.126 249.898C182.998 252.411 181.17 254.546 178.86 256.046L133.216 285.688C131.099 287.063 129.406 289.049 128.367 291.35C124.379 300.178 130.989 310.299 140.669 309.925C143.017 309.834 145.296 309.111 147.266 307.832L208.529 268.047L255.76 237.375C258.907 235.331 262.738 234.566 266.432 235.227C274.848 236.732 280.272 245.092 278.133 253.371C277.214 256.929 274.994 260.012 271.912 262.014L121.587 359.636C119.052 361.283 117.211 363.805 116.417 366.722C114.489 373.807 119.155 380.993 126.412 382.112C129.4 382.573 132.453 381.918 134.988 380.271L169.63 357.774C172.233 356.084 175.41 355.524 178.433 356.221C184.381 357.593 188.194 363.456 187.112 369.463C186.547 372.599 184.706 375.392 182.033 377.128L164.256 388.672C162.159 390.034 160.489 391.977 159.452 394.252C155.456 403.021 161.959 413.016 171.593 412.825C174.034 412.776 176.413 412.046 178.46 410.716L224.199 381.013L400.957 266.225C403.846 264.349 405.877 261.408 406.608 258.042C408.136 251.008 403.622 244.049 396.593 242.498C393.15 241.738 389.519 242.385 386.562 244.305L285.826 309.724C283.66 311.13 281.066 311.767 278.494 311.535C271.034 310.861 266.146 303.323 268.662 296.268C269.506 293.9 271.106 291.875 273.214 290.506L401.012 207.513C403.594 205.837 405.453 203.254 406.223 200.273C408.028 193.287 403.461 186.255 396.345 185.062C393.309 184.554 390.193 185.201 387.611 186.878L337.842 219.198C334.896 221.112 331.361 221.906 327.879 221.437C319.03 220.244 313.301 211.432 315.718 202.836C316.689 199.382 318.889 196.378 321.898 194.424L403.264 141.585C405.851 139.905 407.755 137.359 408.636 134.402C410.866 126.92 406.037 119.175 398.336 117.885L398.065 117.84C394.8 117.293 391.449 117.989 388.673 119.792L354.921 141.711C351.967 143.629 348.416 144.404 344.932 143.89L343.811 143.724C334.916 142.411 329.72 132.983 333.36 124.762C334.429 122.35 336.176 120.3 338.389 118.863L424.161 63.1616C427.19 61.1945 429.321 58.112 430.092 54.5833C431.667 47.3672 427.246 40.1994 420.09 38.3688L419.72 38.2742C415.899 37.2967 411.844 37.9627 408.536 40.1107Z" fill="url(#paint0_linear_495_663)"/>
<path d="M489.01 209.043L438.631 241.759C434.466 244.464 429.126 244.564 424.862 242.017C421.44 239.972 419.138 236.434 418.624 232.481C417.968 227.441 420.257 222.423 424.519 219.656L474.617 187.122C477.522 185.235 481.082 184.575 484.474 185.277C491.657 186.763 496.276 193.883 494.623 201.029C493.861 204.327 491.848 207.199 489.01 209.043Z" fill="url(#paint1_linear_495_663)"/>
<path d="M117.059 450.59L140.39 435.439C144.079 433.044 146.311 428.95 146.327 424.552C146.345 419.422 143.307 414.737 138.636 412.615C134.539 410.753 129.734 411.091 125.96 413.542L102.912 428.51C99.4215 430.776 97.2046 434.598 96.9371 438.752C96.5627 444.564 100.083 449.979 105.569 451.937C109.4 453.303 113.648 452.805 117.059 450.59Z" fill="url(#paint2_linear_495_663)"/>
<path d="M96.1628 341.641L96.6192 341.345C98.5214 340.11 100.077 338.41 101.14 336.406C106.004 327.235 98.9035 316.271 88.5374 316.835C86.1976 316.963 83.9186 317.702 81.9534 318.978L81.6937 319.147C79.7529 320.407 78.1655 322.16 77.0976 324.213C72.2719 333.491 79.4673 344.54 89.8954 343.757C92.129 343.589 94.2843 342.861 96.1628 341.641Z" fill="url(#paint3_linear_495_663)"/>
<path d="M418.823 188.017L418.578 187.87C415.33 185.92 413.161 182.581 412.701 178.82L412.666 178.537C412.115 174.043 414.174 169.628 417.972 167.162C421.309 164.994 425.512 164.648 429.159 166.238L429.384 166.337C433.9 168.306 436.806 172.78 436.768 177.707L436.766 177.952C436.736 181.932 434.71 185.63 431.373 187.797C427.575 190.263 422.704 190.349 418.823 188.017Z" fill="url(#paint4_linear_495_663)"/>
<path d="M467.949 34.7255L462.231 38.4386C458.263 41.016 453.239 41.3437 448.969 39.3037C444.541 37.1882 441.597 32.8499 441.266 27.9534L441.241 27.5791C440.894 22.4291 443.362 17.4946 447.691 14.6833L452.377 11.6401C455.33 9.72199 458.896 8.98077 462.369 9.56273L462.73 9.62328C470.937 10.9984 476.053 19.2888 473.602 27.241C472.653 30.3212 470.652 32.9701 467.949 34.7255Z" fill="url(#paint5_linear_495_663)"/>
<path d="M472.839 96.4901L444.592 115.261C440.262 118.139 434.643 118.195 430.257 115.405C427.088 113.389 424.932 110.114 424.333 106.407L424.307 106.249C423.454 100.969 425.798 95.6827 430.284 92.7696L458.023 74.7556C461.96 72.1991 466.951 71.9002 471.164 73.9688L471.378 74.0736C475.795 76.2419 478.602 80.7255 478.623 85.646C478.642 90.0035 476.468 94.0783 472.839 96.4901Z" fill="url(#paint6_linear_495_663)"/>
<defs>
<linearGradient id="paint0_linear_495_663" x1="156.231" y1="89.393" x2="265.228" y2="46.0213" gradientUnits="userSpaceOnUse">
<stop stop-color="#C595EB"/>
<stop offset="1" stop-color="#88ADF5"/>
</linearGradient>
<linearGradient id="paint1_linear_495_663" x1="156.231" y1="89.393" x2="265.228" y2="46.0213" gradientUnits="userSpaceOnUse">
<stop stop-color="#C595EB"/>
<stop offset="1" stop-color="#88ADF5"/>
</linearGradient>
<linearGradient id="paint2_linear_495_663" x1="156.231" y1="89.393" x2="265.228" y2="46.0213" gradientUnits="userSpaceOnUse">
<stop stop-color="#C595EB"/>
<stop offset="1" stop-color="#88ADF5"/>
</linearGradient>
<linearGradient id="paint3_linear_495_663" x1="156.231" y1="89.393" x2="265.228" y2="46.0213" gradientUnits="userSpaceOnUse">
<stop stop-color="#C595EB"/>
<stop offset="1" stop-color="#88ADF5"/>
</linearGradient>
<linearGradient id="paint4_linear_495_663" x1="156.231" y1="89.393" x2="265.228" y2="46.0213" gradientUnits="userSpaceOnUse">
<stop stop-color="#C595EB"/>
<stop offset="1" stop-color="#88ADF5"/>
</linearGradient>
<linearGradient id="paint5_linear_495_663" x1="156.231" y1="89.393" x2="265.228" y2="46.0213" gradientUnits="userSpaceOnUse">
<stop stop-color="#C595EB"/>
<stop offset="1" stop-color="#88ADF5"/>
</linearGradient>
<linearGradient id="paint6_linear_495_663" x1="156.231" y1="89.393" x2="265.228" y2="46.0213" gradientUnits="userSpaceOnUse">
<stop stop-color="#C595EB"/>
<stop offset="1" stop-color="#88ADF5"/>
</linearGradient>
</defs>
</svg>
