<svg width="385" height="307" viewBox="0 0 385 307" fill="none" xmlns="http://www.w3.org/2000/svg">
<path d="M268.772 33.1745L90.7294 148.797L82.3003 154.271C78.4499 156.771 75.755 160.703 74.8121 165.197C72.8944 174.335 78.7547 183.379 87.8348 185.555C92.5 186.673 97.4914 185.844 101.515 183.232L128.841 165.486C133.331 162.57 138.954 162.003 143.936 163.966C150.516 166.557 154.726 173.04 154.417 180.105C154.183 185.454 151.379 190.361 146.888 193.277L138.026 199.032C133.15 202.199 130.108 207.529 129.863 213.338L129.822 214.31C129.497 221.981 134.44 228.887 141.805 231.055C146.487 232.433 151.538 231.696 155.632 229.038L284.478 145.364C288.512 142.744 291.307 138.594 292.218 133.87L292.352 133.177C294.172 123.74 287.82 114.669 278.329 113.151C274.168 112.485 269.908 113.387 266.373 115.683L260.235 119.669C256.117 122.343 251.027 123.053 246.335 121.608C238.674 119.249 233.801 111.745 234.762 103.787C235.35 98.9137 238.07 94.5517 242.187 91.878L263.446 78.0723L287.305 62.5783C292.678 59.0885 295.728 52.9514 295.264 46.5607L295.247 46.3294C294.811 40.3365 291.275 35.0072 285.922 32.2779C280.456 29.4911 273.918 29.8329 268.772 33.1745Z" fill="url(#paint0_linear_2_218)"/>
<path d="M124.413 232.686L124.881 233.637C130.072 244.19 121.024 256.153 109.457 254.03C103.946 253.019 99.5316 248.886 98.1619 243.453L97.9027 242.424C94.245 227.916 112.616 218.348 122.408 229.66C123.203 230.579 123.877 231.596 124.413 232.686Z" fill="url(#paint1_linear_2_218)"/>
<path d="M326.924 8.75562L325.925 8.11198C320.253 4.46018 312.967 4.47442 307.309 8.14835C302.266 11.4236 299.308 17.1116 299.514 23.1217C299.728 29.3508 303.3 34.985 308.847 37.8273L309.203 38.0095C314.713 40.8329 321.312 40.4969 326.507 37.1285L326.969 36.8285C334.338 32.0502 336.751 22.3831 332.492 14.7022C331.155 12.2911 329.242 10.2482 326.924 8.75562Z" fill="url(#paint2_linear_2_218)"/>
<path d="M332.595 72.6778L307.605 88.9061C303.426 91.6199 300.659 96.0403 300.043 100.985C299.079 108.716 303.528 116.103 310.812 118.867L311.493 119.126C316.804 121.142 322.758 120.505 327.522 117.411L350.613 102.415C355.033 99.5451 357.95 94.8608 358.576 89.6284L358.662 88.9099C359.687 80.337 354.106 72.3626 345.7 70.3907C341.203 69.3357 336.469 70.1617 332.595 72.6778Z" fill="url(#paint3_linear_2_218)"/>
<path d="M19.8924 194.799L36.793 183.824C41.3459 180.867 47.0269 180.232 52.1201 182.111C59.1399 184.699 63.6824 191.528 63.3578 199.002L63.3473 199.244C63.1013 204.909 60.1321 210.106 55.3766 213.194L39.1197 223.751C34.9324 226.471 29.7833 227.273 24.9674 225.956L24.7354 225.892C16.1406 223.542 10.752 215.03 12.3044 206.256C13.1369 201.551 15.8848 197.402 19.8924 194.799Z" fill="url(#paint4_linear_2_218)"/>
<defs>
<linearGradient id="paint0_linear_2_218" x1="287.254" y1="198.379" x2="224.454" y2="238.9" gradientUnits="userSpaceOnUse">
<stop stop-color="#88ADF5"/>
<stop offset="1" stop-color="#C595EB"/>
</linearGradient>
<linearGradient id="paint1_linear_2_218" x1="287.254" y1="198.379" x2="224.454" y2="238.9" gradientUnits="userSpaceOnUse">
<stop stop-color="#88ADF5"/>
<stop offset="1" stop-color="#C595EB"/>
</linearGradient>
<linearGradient id="paint2_linear_2_218" x1="287.254" y1="198.379" x2="224.454" y2="238.9" gradientUnits="userSpaceOnUse">
<stop stop-color="#88ADF5"/>
<stop offset="1" stop-color="#C595EB"/>
</linearGradient>
<linearGradient id="paint3_linear_2_218" x1="287.254" y1="198.379" x2="224.454" y2="238.9" gradientUnits="userSpaceOnUse">
<stop stop-color="#88ADF5"/>
<stop offset="1" stop-color="#C595EB"/>
</linearGradient>
<linearGradient id="paint4_linear_2_218" x1="287.254" y1="198.379" x2="224.454" y2="238.9" gradientUnits="userSpaceOnUse">
<stop stop-color="#88ADF5"/>
<stop offset="1" stop-color="#C595EB"/>
</linearGradient>
</defs>
</svg>
