<svg width="484" height="392" viewBox="0 0 484 392" fill="none" xmlns="http://www.w3.org/2000/svg">
<path d="M78.6327 216.305L78.6453 215.766C78.7723 210.349 81.566 205.344 86.1102 202.393L231.54 107.95L270.669 82.5392L287.438 71.6489L305.213 60.106C309.904 57.0599 315.822 56.61 320.919 58.9122L321.408 59.1331C327.251 61.7721 330.891 67.7107 330.59 74.1149C330.354 79.1441 327.711 83.752 323.488 86.4941L251.016 133.558C246.832 136.275 244.308 140.926 244.311 145.915L244.311 146.345C244.314 152.146 247.87 157.353 253.273 159.466C257.504 161.121 262.274 160.634 266.084 158.16L324.206 120.415C327.944 117.988 332.48 117.112 336.853 117.974L337.757 118.152C347.404 120.052 353.195 129.985 350.097 139.316C348.93 142.832 346.601 145.847 343.494 147.865L304.974 172.88C300.252 175.947 297.415 181.205 297.445 186.835L297.448 187.264C297.482 193.717 301.415 199.509 307.401 201.922C312.207 203.858 317.655 203.331 322 200.509L340.487 188.504C343.975 186.239 348.251 185.536 352.281 186.565C359.114 188.31 363.785 194.61 363.47 201.656L363.417 202.849C363.181 208.124 360.413 212.96 355.985 215.836L304.788 249.083L206.987 312.596C202.627 315.427 197.18 316.015 192.316 314.178L191.201 313.756C184.453 311.208 180.498 304.195 181.807 297.102C182.55 293.077 184.915 289.533 188.349 287.304L207.133 275.105C211.031 272.573 213.631 268.468 214.253 263.862C215.274 256.306 210.805 249.084 203.587 246.626L203.178 246.486C198.395 244.858 193.129 245.513 188.891 248.265L108.022 300.782C104.561 303.03 100.374 303.875 96.3116 303.146C87.6932 301.599 81.8544 293.496 83.1144 284.831L83.2522 283.883C83.9657 278.977 86.7585 274.616 90.9166 271.915L131.042 245.858C134.306 243.738 136.554 240.37 137.261 236.543C138.578 229.403 134.288 222.423 127.323 220.373L126.911 220.252C122.808 219.045 118.383 219.691 114.797 222.02L102.812 229.803C98.7218 232.459 93.6274 233.057 89.033 231.422C82.6676 229.155 78.4744 223.06 78.6327 216.305Z" fill="url(#paint0_linear_495_576)"/>
<path d="M134.603 322.206L151.499 311.234C155.218 308.819 159.824 308.199 164.05 309.544C170.137 311.483 174.293 317.11 174.356 323.498L174.367 324.689C174.423 330.314 171.598 335.578 166.88 338.642L153.269 347.481C148.84 350.357 143.296 350.918 138.382 348.988L137.27 348.552C130.706 345.974 126.85 339.144 128.035 332.192C128.734 328.092 131.115 324.471 134.603 322.206Z" fill="url(#paint1_linear_495_576)"/>
<path d="M59.4659 228.953L59.9495 229.18C65.5928 231.831 69.1202 237.582 68.9242 243.813C68.7633 248.927 66.1087 253.638 61.8177 256.425L35.6118 273.443C32.1005 275.723 27.8257 276.512 23.732 275.633C15.586 273.886 10.2106 266.096 11.4676 257.86L11.5482 257.332C12.2506 252.73 14.8859 248.647 18.7905 246.111L43.5279 230.046C48.2943 226.951 54.3216 226.538 59.4659 228.953Z" fill="url(#paint2_linear_495_576)"/>
<path d="M372.029 178.501L372.184 179.602C372.844 184.273 375.641 188.371 379.749 190.689L380.028 190.846C384.776 193.525 390.621 193.343 395.193 190.373C399.519 187.564 402.048 182.685 401.848 177.531L401.762 175.296C401.528 169.259 397.636 163.975 391.94 161.962C387.62 160.434 382.836 161.002 378.993 163.498L378.803 163.621C373.844 166.842 371.201 172.646 372.029 178.501Z" fill="url(#paint3_linear_495_576)"/>
<path d="M361.754 104.789L361.716 105.764C361.431 113.131 366.186 119.751 373.259 121.833C377.768 123.159 382.631 122.449 386.572 119.89L426.649 93.8636C429.459 92.0387 431.643 89.397 432.906 86.2939C436.971 76.3118 430.467 65.1896 419.774 63.8371L418.906 63.7272C414.902 63.2209 410.849 64.1489 407.464 66.3467L369.643 90.9083C364.914 93.9789 361.973 99.1552 361.754 104.789Z" fill="url(#paint4_linear_495_576)"/>
<defs>
<linearGradient id="paint0_linear_495_576" x1="291.1" y1="352.03" x2="362.34" y2="293.353" gradientUnits="userSpaceOnUse">
<stop stop-color="#C595EB"/>
<stop offset="1" stop-color="#88ADF5"/>
</linearGradient>
<linearGradient id="paint1_linear_495_576" x1="291.1" y1="352.03" x2="362.34" y2="293.353" gradientUnits="userSpaceOnUse">
<stop stop-color="#C595EB"/>
<stop offset="1" stop-color="#88ADF5"/>
</linearGradient>
<linearGradient id="paint2_linear_495_576" x1="291.1" y1="352.03" x2="362.34" y2="293.353" gradientUnits="userSpaceOnUse">
<stop stop-color="#C595EB"/>
<stop offset="1" stop-color="#88ADF5"/>
</linearGradient>
<linearGradient id="paint3_linear_495_576" x1="291.1" y1="352.03" x2="362.34" y2="293.353" gradientUnits="userSpaceOnUse">
<stop stop-color="#C595EB"/>
<stop offset="1" stop-color="#88ADF5"/>
</linearGradient>
<linearGradient id="paint4_linear_495_576" x1="291.1" y1="352.03" x2="362.34" y2="293.353" gradientUnits="userSpaceOnUse">
<stop stop-color="#C595EB"/>
<stop offset="1" stop-color="#88ADF5"/>
</linearGradient>
</defs>
</svg>
