<svg width="572" height="464" viewBox="0 0 572 464" fill="none" xmlns="http://www.w3.org/2000/svg">
<path d="M165.445 422.992L351.97 301.861L482.813 216.891C486.251 214.658 488.58 211.069 489.22 207.019L489.281 206.631C490.44 199.29 485.678 192.318 478.419 190.726C474.75 189.921 470.913 190.62 467.763 192.665L409.078 230.776C407.277 231.946 405.232 232.689 403.1 232.948C392.275 234.263 384.117 223.319 388.47 213.321L388.869 212.407C390.017 209.769 391.916 207.527 394.33 205.96L439.667 176.517C441.877 175.082 443.635 172.995 444.693 170.582C448.628 161.613 441.968 151.414 432.177 151.689C429.725 151.757 427.339 152.501 425.282 153.837L364.156 193.533L317.131 224.071C313.856 226.198 309.859 226.971 306.023 226.238C297.562 224.62 292.118 216.228 294.174 207.863C295.086 204.149 297.38 200.922 300.588 198.839L450.542 101.457C453.182 99.7429 455.084 97.1025 455.875 94.0558C457.734 86.8928 453.049 79.6778 445.749 78.4626C442.644 77.9458 439.458 78.6099 436.818 80.3242L402.51 102.604C399.805 104.361 396.495 104.925 393.36 104.163C387.391 102.711 383.568 96.8305 384.584 90.7724C385.133 87.5053 387.032 84.5869 389.81 82.7827L407.271 71.4437C409.46 70.0219 411.194 67.9816 412.251 65.5945C416.195 56.6859 409.644 46.6168 399.902 46.7058C397.353 46.7291 394.863 47.4789 392.726 48.8673L347.129 78.4783L170.559 193.144C167.555 195.095 165.459 198.169 164.74 201.679C163.286 208.778 167.815 215.759 174.872 217.406C178.443 218.239 182.228 217.588 185.304 215.591L285.701 150.392C287.959 148.926 290.67 148.277 293.349 148.55C300.868 149.317 305.781 156.896 303.325 164.044C302.474 166.522 300.817 168.644 298.619 170.072L171.134 252.862C168.447 254.607 166.525 257.31 165.761 260.421C164.025 267.482 168.61 274.542 175.766 275.828C178.92 276.395 182.171 275.74 184.858 273.995L234.262 241.911C237.33 239.918 241.02 239.112 244.64 239.644C253.546 240.951 259.299 249.801 256.966 258.495C255.998 262.103 253.722 265.249 250.589 267.284L169.594 319.883C166.9 321.632 164.93 324.298 164.049 327.387C161.891 334.952 166.739 342.727 174.482 344.119L174.762 344.17C178.154 344.78 181.651 344.074 184.542 342.197L217.911 320.527C220.989 318.528 224.699 317.742 228.324 318.321L229.482 318.506C238.434 319.935 243.649 329.408 240.069 337.737C238.983 340.264 237.172 342.413 234.865 343.911L149.435 399.39C146.286 401.435 144.087 404.657 143.329 408.335C141.831 415.614 146.264 422.801 153.442 424.728L153.821 424.83C157.781 425.893 162.006 425.225 165.445 422.992Z" fill="url(#paint0_linear_495_561)"/>
<path d="M82.5055 250.327L132.463 217.884C136.765 215.09 142.29 215.012 146.669 217.684C150.08 219.766 152.383 223.305 152.934 227.262C153.659 232.462 151.317 237.662 146.914 240.522L97.2475 272.775C94.2248 274.738 90.5137 275.402 86.9932 274.63C79.7783 273.048 75.1438 265.904 76.7222 258.688C77.4746 255.249 79.5526 252.244 82.5055 250.327Z" fill="url(#paint1_linear_495_561)"/>
<path d="M454.057 9.03836L431.157 23.9095C427.337 26.3904 425.045 30.6481 425.078 35.2032C425.116 40.3514 428.157 45.0412 432.821 47.2216C437.044 49.1958 442.028 48.8721 445.937 46.3332L468.543 31.653C472.164 29.3018 474.443 25.3194 474.671 21.0084C474.981 15.1649 471.455 9.74145 465.966 7.71211C462.01 6.2492 457.595 6.74086 454.057 9.03836Z" fill="url(#paint2_linear_495_561)"/>
<path d="M476.383 120.014L476.189 120.139C474.201 121.43 472.584 123.215 471.495 125.32C466.667 134.651 473.835 145.708 484.331 145.246C486.772 145.138 489.155 144.379 491.204 143.048C493.229 141.734 494.876 139.894 495.968 137.742C500.755 128.302 493.5 117.151 482.938 117.838C480.603 117.99 478.346 118.739 476.383 120.014Z" fill="url(#paint3_linear_495_561)"/>
<path d="M153.111 272.521L153.59 272.815C156.827 274.801 158.996 278.141 159.493 281.906L159.567 282.463C160.158 286.939 158.123 291.357 154.336 293.816C150.999 295.983 146.79 296.307 143.161 294.677L142.718 294.478C138.207 292.451 135.298 287.972 135.282 283.027L135.28 282.541C135.267 278.563 137.275 274.85 140.612 272.683C144.399 270.224 149.262 270.161 153.111 272.521Z" fill="url(#paint4_linear_495_561)"/>
<path d="M105.632 427.836L110.939 424.39C115.045 421.723 120.252 421.411 124.648 423.568C129.065 425.736 132.009 430.077 132.39 434.983L132.42 435.364C132.833 440.689 130.302 445.814 125.822 448.723L121.587 451.473C118.511 453.471 114.791 454.221 111.181 453.572L110.809 453.505C102.556 452.022 97.4209 443.699 99.7964 435.657C100.747 432.438 102.817 429.664 105.632 427.836Z" fill="url(#paint5_linear_495_561)"/>
<path d="M100.063 364.943L127.848 346.469C132.317 343.497 138.124 343.465 142.627 346.385C145.783 348.433 147.939 351.707 148.571 355.416L148.598 355.576C149.527 361.02 147.128 366.494 142.496 369.502L115.244 387.2C111.168 389.847 105.993 390.129 101.654 387.942L101.438 387.834C97.0289 385.612 94.2188 381.125 94.1443 376.189C94.0763 371.677 96.3059 367.441 100.063 364.943Z" fill="url(#paint6_linear_495_561)"/>
<defs>
<linearGradient id="paint0_linear_495_561" x1="172.526" y1="70.3295" x2="282.18" y2="28.304" gradientUnits="userSpaceOnUse">
<stop stop-color="#C595EB"/>
<stop offset="1" stop-color="#88ADF5"/>
</linearGradient>
<linearGradient id="paint1_linear_495_561" x1="172.526" y1="70.3295" x2="282.18" y2="28.304" gradientUnits="userSpaceOnUse">
<stop stop-color="#C595EB"/>
<stop offset="1" stop-color="#88ADF5"/>
</linearGradient>
<linearGradient id="paint2_linear_495_561" x1="172.526" y1="70.3295" x2="282.18" y2="28.304" gradientUnits="userSpaceOnUse">
<stop stop-color="#C595EB"/>
<stop offset="1" stop-color="#88ADF5"/>
</linearGradient>
<linearGradient id="paint3_linear_495_561" x1="172.526" y1="70.3295" x2="282.18" y2="28.304" gradientUnits="userSpaceOnUse">
<stop stop-color="#C595EB"/>
<stop offset="1" stop-color="#88ADF5"/>
</linearGradient>
<linearGradient id="paint4_linear_495_561" x1="172.526" y1="70.3295" x2="282.18" y2="28.304" gradientUnits="userSpaceOnUse">
<stop stop-color="#C595EB"/>
<stop offset="1" stop-color="#88ADF5"/>
</linearGradient>
<linearGradient id="paint5_linear_495_561" x1="172.526" y1="70.3295" x2="282.18" y2="28.304" gradientUnits="userSpaceOnUse">
<stop stop-color="#C595EB"/>
<stop offset="1" stop-color="#88ADF5"/>
</linearGradient>
<linearGradient id="paint6_linear_495_561" x1="172.526" y1="70.3295" x2="282.18" y2="28.304" gradientUnits="userSpaceOnUse">
<stop stop-color="#C595EB"/>
<stop offset="1" stop-color="#88ADF5"/>
</linearGradient>
</defs>
</svg>
