<svg width="572" height="464" viewBox="0 0 572 464" fill="none" xmlns="http://www.w3.org/2000/svg">
<path d="M61.9739 263.66L248.498 142.529L379.34 57.5599C382.779 55.3263 387.005 54.6582 390.966 55.7219L391.345 55.8238C398.523 57.7514 402.956 64.9376 401.458 72.2171C400.7 75.896 398.501 79.1183 395.351 81.164L336.667 119.274C334.865 120.444 333.355 122.01 332.251 123.853C326.646 133.207 333.326 145.111 344.231 145.201L345.229 145.21C348.106 145.233 350.928 144.41 353.341 142.843L398.677 113.402C400.887 111.966 403.509 111.209 406.145 111.224C415.939 111.277 422.548 121.511 418.315 130.343C417.255 132.556 415.605 134.434 413.547 135.77L352.422 175.465L305.398 206.003C302.122 208.13 299.79 211.468 298.9 215.271C296.936 223.658 302.388 232.046 310.867 233.571C314.632 234.248 318.513 233.465 321.721 231.381L471.674 134.001C474.314 132.286 477.501 131.622 480.606 132.139C487.906 133.355 492.592 140.57 490.733 147.733C489.942 150.781 488.04 153.422 485.399 155.136L451.093 177.415C448.387 179.172 446.525 181.967 445.947 185.141C444.845 191.185 448.662 197.07 454.61 198.605C457.818 199.433 461.257 198.886 464.036 197.081L481.495 185.743C483.685 184.321 486.255 183.567 488.866 183.572C498.609 183.593 505.143 193.673 501.1 202.537C500.042 204.857 498.344 206.827 496.205 208.215L450.609 237.826L274.041 352.491C271.036 354.442 267.374 355.107 263.875 354.336C256.798 352.776 252.262 345.799 253.628 338.682C254.319 335.08 256.454 331.886 259.53 329.889L359.926 264.691C362.184 263.224 363.88 261.011 364.719 258.453C367.077 251.271 362.152 243.7 354.623 243.036C352.012 242.805 349.399 243.456 347.2 244.884L219.716 327.673C217.029 329.418 213.777 330.074 210.623 329.506C203.467 328.219 198.882 321.159 200.617 314.099C201.382 310.987 203.304 308.283 205.991 306.538L255.394 274.455C258.463 272.462 260.7 269.418 261.687 265.894C264.115 257.227 258.37 248.371 249.479 246.966C245.788 246.382 241.988 247.182 238.854 249.217L157.86 301.815C155.166 303.565 151.929 304.28 148.748 303.828C140.959 302.722 135.828 295.131 137.705 287.49L137.773 287.214C138.596 283.867 140.663 280.958 143.554 279.081L176.921 257.411C180 255.412 182.227 252.342 183.173 248.795L183.475 247.662C185.81 238.902 179.277 230.284 170.212 230.166C167.461 230.131 164.761 230.911 162.453 232.41L77.0248 287.888C73.8747 289.933 70.0365 290.632 66.3676 289.827C59.1082 288.235 54.3463 281.262 55.5048 273.921L55.566 273.533C56.2053 269.482 58.5345 265.893 61.9739 263.66Z" fill="url(#paint0_linear_495_558)"/>
<path d="M185.987 409.674L235.942 377.232C240.245 374.438 242.563 369.422 241.903 364.334C241.389 360.371 239.093 356.828 235.702 354.714C231.246 351.936 225.542 351.961 221.138 354.821L171.474 387.073C168.451 389.037 166.334 392.157 165.607 395.688C164.118 402.923 168.76 410.063 175.994 411.556C179.443 412.268 183.033 411.592 185.987 409.674Z" fill="url(#paint1_linear_495_558)"/>
<path d="M557.536 168.387L534.639 183.257C530.818 185.738 525.995 186.1 521.847 184.216C517.159 182.088 514.112 177.402 514.017 172.254C513.931 167.593 516.254 163.171 520.164 160.631L542.767 145.952C546.389 143.601 550.954 143.138 554.986 144.683C560.45 146.778 563.971 152.205 563.593 158.044C563.32 162.255 561.075 166.089 557.536 168.387Z" fill="url(#paint2_linear_495_558)"/>
<path d="M465.231 102.844L465.038 102.969C463.05 104.26 460.761 105.012 458.395 105.151C447.907 105.765 440.721 94.7188 445.412 85.318C446.503 83.1317 448.166 81.263 450.215 79.9322C452.239 78.6178 454.59 77.8607 457 77.739C467.572 77.2054 474.809 88.369 469.886 97.7391C468.797 99.8114 467.194 101.569 465.231 102.844Z" fill="url(#paint3_linear_495_558)"/>
<path d="M194.425 336.142L194.351 335.583C193.854 331.818 191.685 328.478 188.447 326.492L187.967 326.198C184.118 323.837 179.255 323.9 175.469 326.359C172.132 328.526 170.124 332.239 170.137 336.218L170.139 336.704C170.156 341.65 173.064 346.129 177.576 348.155L178.019 348.355C181.648 349.985 185.857 349.661 189.194 347.494C192.981 345.035 195.016 340.618 194.425 336.142Z" fill="url(#paint4_linear_495_558)"/>
<path d="M33.2213 316.334L38.5265 312.889C42.6338 310.221 45.0366 305.591 44.8535 300.697C44.6695 295.779 41.9016 291.325 37.5741 288.981L37.2383 288.799C32.5411 286.255 26.8291 286.483 22.3491 289.392L18.1156 292.141C15.0396 294.139 12.8402 297.234 11.9651 300.795L11.8749 301.163C9.87399 309.306 15.3888 317.383 23.7018 318.484C27.0298 318.925 30.4058 318.162 33.2213 316.334Z" fill="url(#paint5_linear_495_558)"/>
<path d="M88.4151 347.007L116.591 329.139C121.124 326.265 123.517 320.972 122.679 315.67C122.093 311.954 119.978 308.653 116.847 306.567L116.712 306.477C112.116 303.414 106.138 303.378 101.506 306.387L74.2557 324.083C70.1794 326.73 67.8161 331.344 68.0491 336.198L68.0607 336.44C68.2973 341.371 71.2532 345.763 75.7327 347.839C79.8266 349.737 84.6044 349.423 88.4151 347.007Z" fill="url(#paint6_linear_495_558)"/>
<defs>
<linearGradient id="paint0_linear_495_558" x1="387.041" y1="400.657" x2="470.036" y2="317.577" gradientUnits="userSpaceOnUse">
<stop stop-color="#C595EB"/>
<stop offset="1" stop-color="#88ADF5"/>
</linearGradient>
<linearGradient id="paint1_linear_495_558" x1="387.041" y1="400.657" x2="470.036" y2="317.577" gradientUnits="userSpaceOnUse">
<stop stop-color="#C595EB"/>
<stop offset="1" stop-color="#88ADF5"/>
</linearGradient>
<linearGradient id="paint2_linear_495_558" x1="387.041" y1="400.657" x2="470.036" y2="317.577" gradientUnits="userSpaceOnUse">
<stop stop-color="#C595EB"/>
<stop offset="1" stop-color="#88ADF5"/>
</linearGradient>
<linearGradient id="paint3_linear_495_558" x1="387.041" y1="400.657" x2="470.036" y2="317.577" gradientUnits="userSpaceOnUse">
<stop stop-color="#C595EB"/>
<stop offset="1" stop-color="#88ADF5"/>
</linearGradient>
<linearGradient id="paint4_linear_495_558" x1="387.041" y1="400.657" x2="470.036" y2="317.577" gradientUnits="userSpaceOnUse">
<stop stop-color="#C595EB"/>
<stop offset="1" stop-color="#88ADF5"/>
</linearGradient>
<linearGradient id="paint5_linear_495_558" x1="387.041" y1="400.657" x2="470.036" y2="317.577" gradientUnits="userSpaceOnUse">
<stop stop-color="#C595EB"/>
<stop offset="1" stop-color="#88ADF5"/>
</linearGradient>
<linearGradient id="paint6_linear_495_558" x1="387.041" y1="400.657" x2="470.036" y2="317.577" gradientUnits="userSpaceOnUse">
<stop stop-color="#C595EB"/>
<stop offset="1" stop-color="#88ADF5"/>
</linearGradient>
</defs>
</svg>
